<svg id="_0495_business_conference" xmlns="http://www.w3.org/2000/svg" xmlns:xlink="http://www.w3.org/1999/xlink" viewBox="0 0 500 500" data-imageid="conference-3-100" imageName="Conference 3" class="illustrations_image" style="width: 186px;"><defs><style>.cls-1_conference-3-100{fill:#020202;opacity:.1;}.cls-1_conference-3-100,.cls-2_conference-3-100,.cls-3_conference-3-100,.cls-4_conference-3-100,.cls-5_conference-3-100,.cls-6_conference-3-100,.cls-7_conference-3-100,.cls-8_conference-3-100,.cls-9_conference-3-100,.cls-10_conference-3-100,.cls-11_conference-3-100,.cls-12_conference-3-100,.cls-13_conference-3-100,.cls-14_conference-3-100,.cls-15_conference-3-100,.cls-16_conference-3-100,.cls-17_conference-3-100,.cls-18_conference-3-100,.cls-19_conference-3-100,.cls-20_conference-3-100,.cls-21_conference-3-100,.cls-22_conference-3-100,.cls-23_conference-3-100,.cls-24_conference-3-100,.cls-25_conference-3-100,.cls-26_conference-3-100{stroke-width:0px;}.cls-1_conference-3-100,.cls-3_conference-3-100{isolation:isolate;}.cls-2_conference-3-100{fill:url(#linear-gradient);}.cls-3_conference-3-100{opacity:.18;}.cls-3_conference-3-100,.cls-26_conference-3-100{fill:#68e1fd;}.cls-4_conference-3-100{fill:url(#linear-gradient-11-conference-3-100);}.cls-5_conference-3-100{fill:url(#linear-gradient-12-conference-3-100);}.cls-6_conference-3-100{fill:url(#linear-gradient-13-conference-3-100);}.cls-7_conference-3-100{fill:url(#linear-gradient-10-conference-3-100);}.cls-8_conference-3-100{fill:url(#linear-gradient-4-conference-3-100);}.cls-9_conference-3-100{fill:url(#linear-gradient-2-conference-3-100);}.cls-10_conference-3-100{fill:url(#linear-gradient-3-conference-3-100);}.cls-11_conference-3-100{fill:url(#linear-gradient-8-conference-3-100);}.cls-12_conference-3-100{fill:url(#linear-gradient-9-conference-3-100);}.cls-13_conference-3-100{fill:url(#linear-gradient-7-conference-3-100);}.cls-14_conference-3-100{fill:url(#linear-gradient-5-conference-3-100);}.cls-15_conference-3-100{fill:url(#linear-gradient-6-conference-3-100);}.cls-16_conference-3-100{fill:#231f20;}.cls-17_conference-3-100{fill:#de9f93;}.cls-18_conference-3-100{fill:#d68369;}.cls-19_conference-3-100{fill:#dc9bd5;}.cls-20_conference-3-100{fill:#c14834;}.cls-21_conference-3-100{fill:#d8dae1;}.cls-22_conference-3-100{fill:#32384f;}.cls-23_conference-3-100{fill:#fff;}.cls-24_conference-3-100{fill:#ec9c7d;}.cls-25_conference-3-100{fill:#fdb9a9;}</style><linearGradient id="linear-gradient-conference-3-100" x1="482.84" y1="3064.11" x2="469.16" y2="2879.35" gradientTransform="translate(-57.2 3342.45) scale(1 -1)" gradientUnits="userSpaceOnUse"><stop offset="0" stop-color="#231f20"/><stop offset=".08" stop-color="#231f20" stop-opacity=".69"/><stop offset=".21" stop-color="#231f20" stop-opacity=".32"/><stop offset="1" stop-color="#231f20" stop-opacity="0"/></linearGradient><linearGradient id="linear-gradient-2-conference-3-100" x1="210.94" y1="3105.89" x2="190.75" y2="2833.36" gradientTransform="translate(-61.04 3337.8) rotate(.69) scale(1 -1)" xlink:href="#linear-gradient-conference-3-100"/><linearGradient id="linear-gradient-3-conference-3-100" x1="72.37" y1="275.39" x2="95.61" y2="288.42" gradientUnits="userSpaceOnUse"><stop offset="0" stop-color="#fff" stop-opacity="0"/><stop offset="1" stop-color="#fff"/></linearGradient><linearGradient id="linear-gradient-4-conference-3-100" x1="115.07" y1="3016.37" x2="264.68" y2="3023" xlink:href="#linear-gradient-conference-3-100"/><linearGradient id="linear-gradient-5-conference-3-100" x1="68.09" y1="269.56" x2="84.38" y2="273.47" xlink:href="#linear-gradient-3-conference-3-100"/><linearGradient id="linear-gradient-6-conference-3-100" x1="239.12" y1="278.07" x2="253.45" y2="275.24" xlink:href="#linear-gradient-3-conference-3-100"/><linearGradient id="linear-gradient-7-conference-3-100" x1="215.8" y1="277.4" x2="246.86" y2="284.57" xlink:href="#linear-gradient-3-conference-3-100"/><linearGradient id="linear-gradient-8-conference-3-100" x1="222.59" y1="279.63" x2="230.73" y2="278.17" xlink:href="#linear-gradient-3-conference-3-100"/><linearGradient id="linear-gradient-9-conference-3-100" x1="229.19" y1="2905.12" x2="214.14" y2="3400.55" xlink:href="#linear-gradient-conference-3-100"/><linearGradient id="linear-gradient-10-conference-3-100" x1="157.52" y1="265.35" x2="188.14" y2="435.09" gradientTransform="matrix(1,0,0,1,0,0)" xlink:href="#linear-gradient-conference-3-100"/><linearGradient id="linear-gradient-11-conference-3-100" x1="284.86" y1="248.43" x2="272.48" y2="310.44" gradientUnits="userSpaceOnUse"><stop offset="0" stop-color="#231f20" stop-opacity="0"/><stop offset="1" stop-color="#231f20"/></linearGradient><linearGradient id="linear-gradient-12-conference-3-100" x1="289.35" y1="243.42" x2="287.39" y2="331.81" xlink:href="#linear-gradient-11-conference-3-100"/><linearGradient id="linear-gradient-13-conference-3-100" x1="104.22" y1="3072.49" x2="86.31" y2="3027.33" xlink:href="#linear-gradient-conference-3-100"/></defs><g id="background_conference-3-100"><path class="cls-3_conference-3-100 targetColor" d="M10.64,336.45c2.6,16,18.49,90.43,76.51,106.23,43.92,11.98,167.2-29.1,237.48-8.44,141.38,41.55,167.27-70.02,159.35-100.16-5.52-21-12.3-42.08-12.48-64.01-.19-22.95,7.85-45.53,8.73-68.62,2.22-58.49-38.87-115.89-94.94-132.68-24.01-7.18-43.62-14.49-68.67-14.71-50.83-.43-171.47,0-230.89,86.43-10.62,15.45-26.04,27.01-37.88,41.53-15.87,19.47-26.33,42.94-32.68,67.24-7.38,28.34-9.22,58.36-4.53,87.19Z" style="fill: rgb(255, 223, 211);"/><path class="cls-2_conference-3-100" d="M442.98,350.92l28.14,2.17c1.34,0,2.65.32,3.82.97,1.77,1.19,2.27,3.7,1.63,5.74s-2.19,3.65-3.85,5c-10.21,8.34-24.57,8.66-37.75,8.57l-62.19-.38c-2.4,0-4.88-.04-7.06-1.04-2.18-1-3.99-3.24-3.69-5.62.27-2.15,2.07-3.75,3.93-4.9,5.38-3.35,11.78-4.59,18.02-5.71,9.46-1.71,18.95-3.29,28.45-4.76"/><path class="cls-9_conference-3-100" d="M242.69,348.61l78.78,3.04c3.7.14,7.59.31,10.67,1.06,4.96,1.2,6.33,3.65,4.5,5.59-1.83,1.94-6.21,3.45-10.83,4.68-28.68,7.7-68.9,7.52-105.81,6.99l-174.11-2.45c-6.72-.1-13.67-.21-19.76-1.24-6.1-1.03-11.13-3.25-10.27-5.52.77-2.07,5.89-3.55,11.04-4.59,15.11-3.06,33.03-4.03,50.53-4.9,26.52-1.32,53.1-2.53,79.73-3.63"/></g><g id="character_4_conference-3-100"><rect class="cls-16_conference-3-100" x="152.9" y="319.62" width="3.05" height="28.2"/><rect class="cls-16_conference-3-100" x="139.59" y="347.25" width="33.86" height="3.95"/><rect class="cls-16_conference-3-100" x="139.59" y="347.25" width="33.86" height="3.95"/><rect class="cls-16_conference-3-100" x="138.29" y="309.34" width="29.22" height="10.29" rx="5.15" ry="5.15"/><rect class="cls-16_conference-3-100" x="144.4" y="309.34" width="29.22" height="10.29" rx="5.15" ry="5.15"/><path class="cls-16_conference-3-100" d="M129.99,271.29v9.8c0,3.62,2.93,6.55,6.55,6.55h9.8c3.62,0,6.56-2.93,6.56-6.55v-9.8c0-3.62-2.94-6.56-6.56-6.56h-9.8c-.29,0-.59.02-.88.06-3.25.44-5.68,3.22-5.68,6.5Z"/><path class="cls-16_conference-3-100" d="M132.71,281.15c.13,1.04.51,2.02,1.1,2.88,1.77,2.43,5.22,2.72,8.22,2.8,2.23.06,10.03,1.73,9.47-2.01-.3-1.97-1.48-4.06-2.07-5.95s-1.85-4.35-1.85-6.26c-.42-1.82-.97-3.61-1.67-5.34-.4-.9-.91-1.76-1.52-2.53h-7.86c-.27-.01-.55.02-.81.1.32,2.64-1.43,4.5-2.39,6.8-.86,2.07-.85,4.34-.82,6.55,0,.99.06,1.98.19,2.97Z"/><path class="cls-23_conference-3-100" d="M146.24,281.55c.52,1.12.93,2.3,1.22,3.5.26,1.48.69,2.92.97,4.4.52,2.98.76,6,.74,9.03,0,1.19,0,2.55.86,3.37.63.5,1.39.81,2.19.9,1.55.31,2.95.92,4.5,1.19,1.69.24,3.39.34,5.09.3,5.02,0,14.37-.56,14.06-7.59-.34-7.96-.96-15.7-2.07-23.63-.38-2.66-.46-5.72-1.26-8.28-.69-2.15-3.18-2.17-5.26-1.95l-.39.04c-.4.04-.8.09-1.19.14-2.77.28-5.55.36-8.33.24-3.13-.1-8.13-.41-11.21,2.54-.21.2-.41.42-.6.65-3.1,3.74-1.43,9.8.69,15.13Z"/><path class="cls-23_conference-3-100" d="M186.74,279.68c.27,1.67.41,3.37.41,5.06.05.59-.08,1.19-.37,1.71-.52.8-1.62.96-2.58.94-3.02-.03-5.91-1.24-8.06-3.37-2-1.99-3.83-4.14-5.46-6.43-.92-1.08-1.36-2.49-1.23-3.9,0-1.92.08-3.86.25-5.77.04-.45,3.14-.1,3.45,0,1.16.33,2.26.83,3.28,1.47.12-1.26-.24-2.7-.34-3.99-.07-.38-.02-.77.13-1.12.35-.63,1.23-.69,1.95-.62,1.55.11,3.27.37,4.24,1.59.41.57.71,1.22.9,1.9,1.39,4.09,2.78,8.27,3.44,12.54Z"/><path class="cls-21_conference-3-100" d="M182.14,281.29c.16.63.09,1.29-.19,1.88-.69,1.05-2.28.69-3.4.18-1.51-.72-2.94-1.59-4.28-2.58-.23-.22-.53-.34-.85-.33-.23.07-.43.22-.57.41-2.1,2.31-4.66,4.15-7.52,5.41-.97.43-2.26.69-2.96-.08s-.14-2.2.48-3.16l7.39-11.42c.08-.17.22-.3.39-.38.28-.1.57.12.79.31,1.02.88,2.15,1.62,3.36,2.21.43.26.94.36,1.43.26.69-.23.92-1.08,1.01-1.79.15-1.19.18-2.4.1-3.6-.08-.5-.05-1,.1-1.48.4-.82,1.38-1.17,2.21-.78.05.03.11.05.16.09.91.69.77,3.3.92,4.41l1.43,10.46Z"/><path class="cls-21_conference-3-100" d="M156.58,280.89c.67,1.22,1.57,2.3,2.66,3.18,1.21.94,4,4.63,5.73,3.5-.76.67-1.66,1.16-2.63,1.45,2.68,1.88,6.05,2.39,9.26,2.99.84.1,1.64.38,2.37.8.74.44,1.16,1.26,1.09,2.12-.23,1.45-2.07,1.88-3.55,1.97-3.61.22-7.24.3-10.82.74-3.06.37-6.35,1.17-8.23,3.61-.13.21-.32.38-.54.5-.39.1-.8-.1-.97-.47-.15-.36-.22-.76-.2-1.15-.06-3-.52-5.97-1.38-8.84-.34-1.16-.39-2.34-.72-3.45-.41-1.38-1.17-2.67-1.63-4.03-.94-2.74-1.57-5.58-1.88-8.46-.22-2.02-.08-4.46,1.66-5.52,1.34-.69,2.97-.52,4.14.43,1.13.94,2,2.15,2.54,3.52,1.04,2.32,1.83,4.93,3.1,7.12Z"/><path class="cls-26_conference-3-100 targetColor" d="M164.03,268.29c-.1.13-.18.28-.23.43,0,.17.03.35.1.5,1.59,4.28,2.86,8.67,3.81,13.14.92,3.91,1.86,7.85,2.07,11.87.03.29.01.59-.06.87-.3.99-1.6,1.3-2.17,2.17l-1.88-2.15c-.12-.12-.22-.27-.29-.43-.05-.23-.05-.46,0-.69.64-4.3-.06-8.68-1.07-12.9-.86-3.63-1.96-7.26-1.89-11,.07-.45-.05-.91-.34-1.26-.19-.13-.4-.23-.62-.3-1.04-.48-1.48-1.71-1-2.75.02-.03.03-.07.05-.1.4,0,.79-.1,1.15-.29.36-.19.77-.24,1.16-.15.85.32,1.71,2.2,1.21,3.02Z" style="fill: rgb(255, 223, 211);"/><path class="cls-23_conference-3-100" d="M146.13,265.79c3.08-2.95,8.08-2.64,11.21-2.54,2.78.12,5.56.04,8.33-.24.39-.06.79-.1,1.19-.14-1.65-.69-3.99-.22-5.76-.17-2.67.09-5.34.25-8.01.49-2.53.23-5.32.66-6.96,2.6Z"/><path class="cls-18_conference-3-100" d="M155.61,254.77c1.05,2.74,4.03,4.21,6.85,3.39,0,0-1.3,3.96.33,6.35,0,0-1.08,2.76-8.36-1.32,0,0,1.97-.17,1.43-4.2-.16-1.39-.65-2.72-1.43-3.88.26.28.7.29.98.03.1-.1.18-.23.2-.37Z"/><path class="cls-24_conference-3-100" d="M159.19,259.86c3.84,1.13,6.97-2.03,8.39-6.71.15-.51.28-1.04.39-1.59.32-1.56.47-3.14.42-4.73-.21-7.67-11.24-6.9-11.24-6.9-8.93,2-4.66,17.97,2.03,19.93Z"/><path class="cls-19_conference-3-100" d="M183.07,307.59l-.23-.23c.9,1.01,1.51,1.75,1.7,1.97-.46-.6-.95-1.18-1.47-1.74Z"/><path class="cls-16_conference-3-100" d="M164.84,238.69c1.41.35,2.63,1.2,3.45,2.4.42.63.69,1.34,1.2,1.92.69.83,1.71,1.43,2.07,2.46-1.74.28-3.52-.04-5.06-.92-.25.43-.71.69-1.21.69-.49,0-.97-.1-1.43-.27-.25-.1-.53-.13-.79-.07-.2.09-.38.22-.52.38-.92.78-2.17,1.04-3.32.69-.69-.21-1.38-.63-2.02-.41s-1.06,1.15-1.06,1.95c.1.79.08,1.58-.06,2.37-.48.08-.58-.69-1.01-.98s-.83.08-1.06.44c-.37.65-.29,1.45.2,2.01.15.12.26.28.33.46.03.18,0,.37-.09.53l-.74,1.88c-1.03-2.36-2.26-4.63-3.68-6.77-.59-.86-1.28-1.85-1.01-2.86s1.38-1.76,1.13-2.76c-.06-.18-.12-.37-.17-.56-.02-.28.04-.57.17-.81,1.05-2.05,2.97-3.51,5.22-3.98,2.23-.44,4.53-.42,6.75.06,2.23.39,4.44.95,6.7,1.12.19,0,.4.05.48.21.02.08.02.17,0,.25-.09.48-.54.81-.91,1.15s-.69.88-.42,1.3"/><path class="cls-16_conference-3-100" d="M156.52,298.7s4.67,11.67,8.42,12.9c3.75,1.23,17.63,5.46,17.63,5.46l19.31,36.36,7.59-4.67-17.04-42.53-15.12-7.75s-3.87.11-20.8.23Z"/><path class="cls-16_conference-3-100" d="M150.04,300.94s-.88,10.64,2.88,11.87c3.75,1.23,17.62,5.46,17.62,5.46l20.64,39.44,8.57-3.45-19.31-46.83-15.11-7.75s-8.78-3.2-15.29,1.25Z"/><path class="cls-16_conference-3-100" d="M212.58,350.1c.99.03,1.98.13,2.95.3.91.1,1.78.45,2.5,1.01.41.36.68.84.78,1.38.08.54-.09,1.1-.46,1.5-.35.31-.77.53-1.21.65-1.04.37-2.07.73-3.13,1.1-2.21.88-4.53,1.44-6.9,1.68-.14.02-.28,0-.41-.04-.1-.05-.19-.12-.28-.21-1.42-1.38-2.76-3.02-3.1-4.98-.02-.07-.02-.13,0-.2.03-.08.09-.14.17-.18,1.43-.97,3-1.7,4.66-2.19,1.52-.43,2.9.15,4.44.19Z"/><path class="cls-16_conference-3-100" d="M201.25,354.57c.99.03,1.98.13,2.95.3.91.1,1.78.45,2.5,1.01.41.36.68.84.77,1.38.09.54-.08,1.1-.46,1.5-.35.31-.76.53-1.21.65-1.04.37-2.07.73-3.13,1.09-2.21.88-4.53,1.45-6.9,1.68-.14.02-.29,0-.42-.04-.1-.05-.19-.12-.27-.21-1.42-1.38-2.76-3.02-3.1-4.98-.02-.07-.02-.14,0-.21.04-.07.1-.13.17-.17,1.43-.96,3-1.7,4.66-2.19,1.52-.41,2.9.19,4.45.19Z"/><path class="cls-23_conference-3-100" d="M144.31,271.32s6.59,14.76,13.57,16.76c6.98,1.99,15.39-18.69,15.39-18.69l-5.6-2.11-9.4,9.45s-5.83-12.38-8.19-11.81-6.65,3.87-5.76,6.41Z"/><path class="cls-18_conference-3-100" d="M174.7,259.04c.07.58.31,1.12.69,1.56.44.92.73,1.91.86,2.92.16,1.02.56,1.98,1.19,2.8.66.82,1.78,1.12,2.76.73.63-.37,1.05-1.02,1.13-1.75.07-.72-.01-1.45-.24-2.13-.25-.9-.59-1.77-1.02-2.6-.38-.79-.92-1.49-1.58-2.07-.96-.82-3.66-1.52-3.79.53Z"/><path class="cls-24_conference-3-100" d="M171.9,259.93c.35-.63.86-1.14,1.48-1.5.59-.23,1.23-.32,1.87-.26,1.24,0,2.69.23,3.28,1.31.38.88.27,1.89-.27,2.68-.48.81-1.15,1.48-1.64,2.29-.69,1.15-1.02,2.58-2.07,3.41-.44.34-.96.58-1.51.69-1.82.42-4.2-.45-3.77-2.62.52-2.14,1.41-4.17,2.63-6.01Z"/></g><g id="character_3_conference-3-100"><path class="cls-20_conference-3-100" d="M104.58,285.66c.71.69,1.5,1.3,2.17,1.76-3.04.93-6.3.72-9.48.5-.17-.01-.34-.03-.48-.11-.39-.23-.24-.61-.31-.96-.09-.47-.16-.74-.42-1.21-.56-1-1.1-2.01-1.6-3.04-1.04-2.13-1.94-4.35-2.58-6.63-2.18-7.8,1.69-9.77,1.69-9.77,2.95-1.08,4.97,3.13,7.88,11.66.34,1,.72,2.01.99,3.03.18.69.12,1.42.32,2.09.29.95,1,1.87,1.83,2.68Z"/><rect class="cls-16_conference-3-100" x="78.09" y="319.24" width="3.05" height="28.2"/><rect class="cls-16_conference-3-100" x="64.77" y="346.86" width="33.86" height="3.95"/><rect class="cls-16_conference-3-100" x="64.77" y="346.86" width="33.86" height="3.95"/><rect class="cls-16_conference-3-100" x="63.48" y="308.94" width="29.22" height="10.29" rx="5.15" ry="5.15"/><rect class="cls-16_conference-3-100" x="69.59" y="308.94" width="29.22" height="10.29" rx="5.15" ry="5.15"/><path class="cls-16_conference-3-100" d="M55.18,270.9v9.8c0,3.62,2.93,6.56,6.55,6.56h9.8c3.62,0,6.56-2.94,6.56-6.56h0v-9.8c0-3.62-2.93-6.55-6.55-6.55h-9.8c-.29,0-.59.02-.88.06-3.25.44-5.69,3.21-5.69,6.5Z"/><path class="cls-16_conference-3-100" d="M57.9,280.77c.13,1.04.51,2.02,1.1,2.88,1.77,2.43,5.21,2.72,8.22,2.8,2.23.06,10.02,1.73,9.46-2.01-.29-1.97-1.47-4.05-2.07-5.95-.6-1.9-1.85-4.35-1.85-6.26-.42-1.82-.97-3.61-1.67-5.35-.4-.9-.91-1.75-1.52-2.52h-7.84c-.27-.02-.55.01-.81.09.32,2.64-1.43,4.5-2.39,6.8-.86,2.07-.84,4.34-.81,6.56-.01.99.05,1.98.18,2.96Z"/><path class="cls-16_conference-3-100" d="M74.8,253.68c1.5,2.07,6.04,4.02,6.04,4.02.52-2.02-.59-2.76-.59-2.76-1.17.1-2.7-2.76-2.2-3.64.62-1.11,1.48-.69,2.07-.23,1.19-.93,1.94-2.32,2.07-3.82.08-.88-1.43-3.35,1.46-4.42s6.98,0,6.98,0c0,0,1.06-2.7-2.32-3.99-7.59-2.92-16.68,2.07-16.17,10.6.13,2.31.29,4.94-1.32,6.61-.95.83-2.07,1.45-3.28,1.81-1.57.5-2.99,1.38-4.14,2.55-1.07,1.24-1.52,3.14-.69,4.54.41.69,1.1,1.32.92,2.07-.12.34-.31.65-.58.9-1.75,1.88-2.88,4.25-3.22,6.79-.32,2.56.48,5.14,2.21,7.06,2.35,2.46,6.09,3.1,9.45,2.59,2.75-.33,5.3-1.6,7.24-3.59,2.8-3.1,3.16-7.59,3.95-11.73.05-.51.25-.99.58-1.38.82-.77,2.13-.14,3.26-.17,1.93-.04,3.23-2.16,3.28-4.09.05-1.93-.74-3.77-1.12-5.66-.39-1.89-.28-4.14,1.19-5.39.55-.48,1.24-.76,1.83-1.19,2.61-1.88,2.46-6.21.23-8.52-2.23-2.31-5.81-2.89-8.97-2.34-2.55.44-8.28,1.86-9.48,4.21s-.17,7.11,1.33,9.17Z"/><path class="cls-16_conference-3-100" d="M67.02,268.51c-.19-2.08.43-4.16,1.73-5.79,1.52-1.77,3.85-2.57,6.02-3.45.92-.37,1.91-.83,2.3-1.75.18-.63.28-1.28.3-1.93.1-.65.48-1.38,1.13-1.44.41-.02.81.12,1.11.39,1.38,1.06,1.81,3,1.5,4.71-.42,1.69-1.17,3.27-2.23,4.66-1.05,1.38-1.92,2.9-2.56,4.51-.42,1.25-.54,2.58-.84,3.86-.69,2.82-3.04,4.5-5.82,2.9-1.93-1.1-2.53-4.7-2.65-6.67Z"/><path class="cls-26_conference-3-100 targetColor" d="M91.94,263.64c-2.96-1-6.11-.68-9.41-.78-3.35-.1-8.82-.45-11.81,3.19-3.71,4.51-.52,12.42,2.07,18.39.97,2.22,1.43,9.41.94,14.67,0,0,10.4,3.64,19.55,1.75.68-.14,2.05-7.72,2.28-8.57.28-1.06.64-2.13.85-3.21s.15-2.23.41-3.33c.31-1.31,1.02-2.48,1.32-3.8.34-1.53-.08-3.06-.31-4.59-.03-.2-.06-.41.02-.59.09-.22.29-.36.49-.48,1.02-.65,2.08-1.23,3.18-1.75.45-.21-2.27-4.84-2.56-5.25-1.16-1.63-2.6-3.07-4.24-4.24-.9-.64-1.82-1.09-2.76-1.41Z" style="fill: rgb(255, 223, 211);"/><path class="cls-10_conference-3-100" d="M91.94,263.64c-2.96-1-6.11-.68-9.41-.78-3.35-.1-8.82-.45-11.81,3.19-3.71,4.51-.52,12.42,2.07,18.39.97,2.22,1.43,9.41.94,14.67,0,0,10.4,3.64,19.55,1.75.68-.14,2.05-7.72,2.28-8.57.28-1.06.64-2.13.85-3.21s.15-2.23.41-3.33c.31-1.31,1.02-2.48,1.32-3.8.34-1.53-.08-3.06-.31-4.59-.03-.2-.06-.41.02-.59.09-.22.29-.36.49-.48,1.02-.65,2.08-1.23,3.18-1.75.45-.21-2.27-4.84-2.56-5.25-1.16-1.63-2.6-3.07-4.24-4.24-.9-.64-1.82-1.09-2.76-1.41Z"/><path class="cls-16_conference-3-100" d="M88.29,238.83s4.41.26,5.73,6.65-5.06,6.28-5.06,6.28l-3.87-11.09,3.21-1.84Z"/><path class="cls-20_conference-3-100" d="M85.35,259.9c3.99.33,6.42-3.39,6.9-8.28.05-.54.07-1.08.06-1.63,0-1.59-.17-3.17-.54-4.72-1.75-7.48-12.42-4.48-12.42-4.48-8.35,3.75-.95,18.54,5.99,19.11Z"/><path class="cls-20_conference-3-100" d="M80.8,254.38c.69,2.21,3.59,6.1,6.9,5.19-.8,1.44-.69,3.21.26,4.55,0,0-1.08,2.76-8.35-1.31,0,0,1.97-.17,1.43-4.21-.16-1.39-.65-2.72-1.43-3.88.25.28.69.31.97.05.12-.1.19-.24.22-.4Z"/><path class="cls-16_conference-3-100" d="M88.21,240.63c-1.04,3.61-2.43,8.75-5.96,10.73-.48.33-1.05.5-1.63.51-.54-.11-.49-.54-.9-.92-.28-.28-.71-.36-1.07-.19-.3.23-.46.59-.43.96,0,.9.47,1.74,1.23,2.21.35.16.68.35,1,.57.35.35.56.81.59,1.3.12,1.35-.56,2.65-1.73,3.33-.07.05-.15.07-.23.08-.1-.02-.19-.07-.26-.15l-1.58-1.44c-.75-.64-1.43-1.36-2.01-2.15-.73-1.07-1.12-2.33-1.12-3.63,0-.59.23-1.17.22-1.74-.1-.74-.29-1.47-.59-2.16-.35-.89-.53-1.84-.53-2.79.12-1.88,1.68-3.36,3.37-4.19,2.66-1.32,5.73-1.46,8.7-1.5.59-.04,1.19.04,1.75.23.51.21.72.77,1.19.95Z"/><path class="cls-20_conference-3-100" d="M81.14,286.12l-3.05,6.7s-6.58-8.18-9.06-17.01c-2.18-7.8,1.69-9.77,1.69-9.77,2.95-1.08,4.97,3.13,7.88,11.66,1.6,4.69,2.54,8.42,2.54,8.42Z"/><path class="cls-20_conference-3-100" d="M78.09,292.82s-.12-5.45,2.54-6.53c2.66-1.08,21.27-4,21.27-4l1.75,2.01s-18.27,10.53-25.55,8.52Z"/><path class="cls-19_conference-3-100" d="M108.25,307.21c-.07-.08-.14-.16-.22-.23.9,1.01,1.51,1.75,1.7,1.97-.46-.59-.95-1.18-1.48-1.74Z"/><path class="cls-26_conference-3-100 targetColor" d="M72.61,308.27c.54,3.18,2.71,5.9,5.35,7.75,2.64,1.85,5.72,2.94,8.8,3.87,1.83.56,2.96,2.9,4.61,3.87.6.29,1.12.72,1.51,1.26.6.97.3,2.22,0,3.32-1.38,4.85-2.78,9.7-4.2,14.55-.69,2.41-1.38,4.96-.73,7.38.65,2.42,3.21,4.5,5.58,3.7,4.65-7.5,9.29-15,13.93-22.49,6.96-11.24,2.29-9.05-2.52-16.75-2.07-3.32-18.33-17-18.33-17-4.14-.6-8.38-.88-12.42-1.12-.46,3.93-2.25,7.77-1.59,11.66Z" style="fill: rgb(255, 223, 211);"/><path class="cls-26_conference-3-100 targetColor" d="M86.58,297.73s16.56,13.5,18.33,17c4.83,9.77,2.52,16.75,2.52,16.75l12.19,19.58c2.82.06,6.6-.69,6.74-3.52-.02-.79-.2-1.58-.55-2.29-3.06-7.62-6.12-15.24-9.17-22.86-1.81-4.53-3.69-9.16-6.59-13.05l-.26-.34h0l-.03-.04c-.19-.23-.79-.96-1.7-1.97h0c-2.64-2.95-7.78-8.22-12.54-10.35,0,0-5.52,1.53-8.85,1.12l-.07-.03Z" style="fill: rgb(255, 223, 211);"/><path class="cls-8_conference-3-100" d="M86.58,297.73s16.56,13.5,18.33,17c4.83,9.77,2.52,16.75,2.52,16.75l12.19,19.58c2.82.06,6.6-.69,6.74-3.52-.02-.79-.2-1.58-.55-2.29-3.06-7.62-6.12-15.24-9.17-22.86-1.81-4.53-3.69-9.16-6.59-13.05l-.26-.34h0l-.03-.04c-.19-.23-.79-.96-1.7-1.97h0c-2.64-2.95-7.78-8.22-12.54-10.35,0,0-5.52,1.53-8.85,1.12l-.07-.03Z"/><path class="cls-20_conference-3-100" d="M95.09,358.26c1.09,1.01,2.54,2.01,2.48,3.49,0,.15-.04.29-.12.41-.15.15-.35.23-.57.23-3.35.37-6.45-1.66-9.05-3.8-.71-.47-1.24-1.18-1.5-1.99-.03-.87.21-1.72.69-2.44.62-1.25,1.12-2.55,1.5-3.89-.11.4,1.57,1.81,1.86,2.07.59.52,1.48.9,1.95,1.55.34.66.65,1.34.92,2.03.48.87,1.1,1.67,1.83,2.35Z"/><path class="cls-20_conference-3-100" d="M129.63,352c1.17.41,2.54.64,3.28,1.64.14.18.23.39.25.62,0,.61-.69.95-1.32,1.08-2.41.49-4.91.14-7.35-.21-.32-.02-.62-.12-.9-.28-.32-.29-.55-.67-.63-1.1l-.97-2.96c-.03-.09-.03-.19,0-.28.04-.09.11-.17.19-.21.65-.46,1.34-.86,2.07-1.19.99-.45,1.06-.43,1.72.35.97,1.14,2.23,2.01,3.64,2.52Z"/><path class="cls-20_conference-3-100" d="M103.9,281.9c1.92-.3,4.08-.55,5.64.61.74.63,1.35,1.41,1.78,2.28.6.53.66,1.45.13,2.04-.3.33-.73.51-1.18.49-1.77.43-3.68.83-5.39.17-1.26-.49-2.27-1.53-3.58-1.84-.22-.03-.44-.11-.63-.22-.18-.15-.31-.35-.37-.58-.79-2.61,1.85-2.7,3.59-2.95Z"/><path class="cls-26_conference-3-100 targetColor" d="M124.52,357.38c.07.14.17.25.3.34.2.06.41.06.61,0,1.09-.15,2.19-.19,3.29-.12,2.23-.04,4.46-.24,6.66-.61.97-.14,2.03-.34,2.59-1.14.07-.09.12-.2.13-.31,0-.17-.07-.34-.19-.46-.97-1.16-2.24-2.03-3.68-2.51-.53-.22-1.1-.35-1.68-.37-.58,0-1.14.25-1.52.69-.4.5-.46,1.23-.9,1.68-.52.41-1.19.59-1.84.49-.76-.03-1.52-.12-2.26-.26-.57-.11-1.38-.5-1.97-.34-1.3.33.08,2.26.47,2.92Z" style="fill: rgb(255, 223, 211);"/><path class="cls-26_conference-3-100 targetColor" d="M85.52,358.31c-.03.17,0,.35.06.51.14.19.34.33.57.39,1.13.56,2.2,1.22,3.2,1.99,2.14,1.39,4.38,2.61,6.7,3.66,1.01.48,2.15.97,3.19.57.13-.04.24-.11.32-.21.1-.17.14-.37.11-.56-.18-1.72-.84-3.35-1.89-4.73-.37-.54-.84-1.01-1.38-1.38-.55-.38-1.24-.5-1.88-.32-.69.22-1.21.88-1.93,1.02-.76.06-1.5-.19-2.07-.69-.7-.51-1.37-1.07-1.99-1.68-.46-.47-1-1.38-1.64-1.59-1.4-.57-1.32,2.15-1.37,3.02Z" style="fill: rgb(255, 223, 211);"/><path class="cls-26_conference-3-100 targetColor" d="M67.85,268.71c-.47,1.43-.78,2.9-.95,4.39l-.29,2.02c-.1.42-.08.85.07,1.26.33.69,1.68.42,2.34.52l3.57.57c2.37.36,4.75.71,7.14,1.05.14-1.21.11-2.44-.07-3.65-.21-1.15-.69-2.22-.99-3.35-.23-.92-.31-1.87-.54-2.76-.5-1.93-1.65-3.64-3.26-4.83-2.5-1.83-6.21,2.6-6.95,4.6-.03.06-.05.12-.07.18Z" style="fill: rgb(255, 223, 211);"/><path class="cls-14_conference-3-100" d="M67.85,268.71c-.47,1.43-.78,2.9-.95,4.39l-.29,2.02c-.1.42-.08.85.07,1.26.33.69,1.68.42,2.34.52l3.57.57c2.37.36,4.75.71,7.14,1.05.14-1.21.11-2.44-.07-3.65-.21-1.15-.69-2.22-.99-3.35-.23-.92-.31-1.87-.54-2.76-.5-1.93-1.65-3.64-3.26-4.83-2.5-1.83-6.21,2.6-6.95,4.6-.03.06-.05.12-.07.18Z"/></g><g id="data_graphic_conference-3-100"><rect class="cls-26_conference-3-100 targetColor" x="374.96" y="254.26" width="3.96" height="101.52" style="fill: rgb(255, 223, 211);"/><rect class="cls-26_conference-3-100 targetColor" x="374.96" y="254.26" width="3.96" height="101.52" style="fill: rgb(255, 223, 211);"/><rect class="cls-23_conference-3-100" x="308.25" y="144.97" width="133.4" height="122.72"/><rect class="cls-3_conference-3-100 targetColor" x="376.93" y="161.43" width="56.62" height="95.86" style="fill: rgb(255, 223, 211);"/><rect class="cls-23_conference-3-100" x="381.39" y="170.63" width="49.56" height="45.93"/><rect class="cls-26_conference-3-100 targetColor" x="304.38" y="142.04" width="139.64" height="5.25" style="fill: rgb(255, 223, 211);"/><rect class="cls-26_conference-3-100 targetColor" x="304.38" y="265.87" width="139.64" height="5.25" style="fill: rgb(255, 223, 211);"/><rect class="cls-26_conference-3-100 targetColor" x="314.56" y="174.43" width="6.72" height="38.32" style="fill: rgb(255, 223, 211);"/><rect class="cls-26_conference-3-100 targetColor" x="323.98" y="190.17" width="6.72" height="22.58" style="fill: rgb(255, 223, 211);"/><rect class="cls-26_conference-3-100 targetColor" x="333.39" y="197.22" width="6.72" height="15.54" style="fill: rgb(255, 223, 211);"/><rect class="cls-26_conference-3-100 targetColor" x="342.8" y="185.28" width="6.72" height="27.48" style="fill: rgb(255, 223, 211);"/><rect class="cls-26_conference-3-100 targetColor" x="352.21" y="178.45" width="6.72" height="34.3" style="fill: rgb(255, 223, 211);"/><rect class="cls-26_conference-3-100 targetColor" x="361.62" y="174.43" width="6.72" height="38.32" style="fill: rgb(255, 223, 211);"/></g><g id="character_2_conference-3-100"><rect class="cls-16_conference-3-100" x="225.38" y="319.11" width="3.05" height="28.2"/><rect class="cls-16_conference-3-100" x="212.07" y="346.73" width="33.86" height="3.95"/><rect class="cls-16_conference-3-100" x="212.07" y="346.73" width="33.86" height="3.95"/><rect class="cls-16_conference-3-100" x="210.77" y="308.83" width="29.22" height="10.29" rx="5.15" ry="5.15"/><rect class="cls-16_conference-3-100" x="216.87" y="308.83" width="29.22" height="10.29" rx="5.15" ry="5.15"/><path class="cls-16_conference-3-100" d="M202.46,270.78v9.8c0,3.62,2.93,6.56,6.55,6.56h9.8c1.11,0,2.2-.28,3.17-.82.81-.44,1.51-1.05,2.07-1.78.87-1.14,1.34-2.53,1.33-3.96v-9.8c0-3.62-2.93-6.55-6.55-6.55h-9.8c-.29,0-.59.02-.88.06-3.26.43-5.69,3.21-5.69,6.5Z"/><path class="cls-16_conference-3-100" d="M205.22,280.63c.13,1.04.51,2.02,1.1,2.88,1.77,2.43,5.22,2.72,8.22,2.8,2.23.06,10.03,1.73,9.47-2.01-.3-1.97-1.48-4.05-2.07-5.95-.59-1.9-1.85-4.35-1.85-6.27-.42-1.82-.97-3.61-1.67-5.34-.39-.9-.9-1.75-1.52-2.52h-7.89c-.28-.02-.55.01-.82.09.32,2.64-1.42,4.5-2.39,6.8-.86,2.07-.84,4.34-.81,6.55,0,.99.07,1.98.22,2.97Z"/><path class="cls-22_conference-3-100" d="M222.09,253.55c1.5,2.07,6.05,4.02,6.05,4.02.52-2.03-.59-2.76-.59-2.76-1.17.1-2.7-2.76-2.2-3.64.62-1.12,1.48-.69,2.07-.23,1.19-.93,1.94-2.32,2.07-3.82.07-.88-1.44-3.35,1.46-4.42s6.99,0,6.99,0c0,0,1.05-2.71-2.32-4-2.76-1.05-6.84-.43-9.7-.1-1.54.08-3.04.53-4.37,1.32-1.91,1.31-2.76,3.7-3.12,5.99-.37,2.29-.36,4.66-1.09,6.86-.4,1.22-1.03,2.39-1.07,3.68-.03,1.28.83,2.76,2.12,2.72.5,0,1.04-.22,1.47.04s.51.97.9,1.38c.69.69,1.86,0,2.83-.22,1.27-.26,2.68.44,3.83-.15.48-.25.87-.69,1.38-.76.69-.07,1.26.57,1.95.65,1.18.14,2.07-1.31,3.24-1.28.52.09,1.03.26,1.5.52,1.74.56,3.61-.4,4.16-2.15.02-.05.03-.1.05-.16.35.26.84.2,1.1-.15.02-.02.03-.05.05-.07.22-.4.31-.85.26-1.3,0-3.86,1.08-9.88-1.88-12.95-2.23-2.32-5.8-2.9-8.97-2.35-2.55.45-8.28,1.86-9.48,4.21-1.21,2.36-.16,7.05,1.34,9.11Z"/><path class="cls-18_conference-3-100" d="M246.18,288.07c-2.4-6.21-4.69-13.43-4.69-13.43l-1.77-12.28c6.05-.41,7.93,7.24,9.24,11.37,1.1,3.45,4.01,11.73,4.95,14.33h-7.72Z"/><path class="cls-18_conference-3-100" d="M271.63,286.62c-1.57,1.92-4.39,2.07-6.9,2.07l-12.15-.04c-.48.05-.96-.05-1.38-.27-.34-.26-.6-.62-.74-1.02-.53-1.15-2.88-5.84-1.91-6.9s5.68.97,6.9,1.3c5.43,1.52,10.83,3.14,16.19,4.86Z"/><path class="cls-26_conference-3-100 targetColor" d="M243.69,263.06c1.1.89,2.04,1.98,2.76,3.2l8.12,12.04c.76,1.41,2.08,2.44,3.64,2.83l8.02,3c.28.1.59.24.69.52s-.16.69-.41.96l-2.95,3.09c-.29.36-.67.62-1.1.77-.43.07-.88,0-1.28-.17l-15.69-5.04c-.5-.13-.97-.36-1.38-.69-.69-.65-.81-1.72-.87-2.68-.11-2.69-.58-5.36-1.38-7.93-.92-2.71-2.46-5.28-2.81-8.16-.12-.97-.35-2.28.63-2.81s3.18.46,4.02,1.06Z" style="fill: rgb(255, 223, 211);"/><path class="cls-15_conference-3-100" d="M243.69,263.06c1.1.89,2.04,1.98,2.76,3.2l8.12,12.04c.76,1.41,2.08,2.44,3.64,2.83l8.02,3c.28.1.59.24.69.52s-.16.69-.41.96l-2.95,3.09c-.29.36-.67.62-1.1.77-.43.07-.88,0-1.28-.17l-15.69-5.04c-.5-.13-.97-.36-1.38-.69-.69-.65-.81-1.72-.87-2.68-.11-2.69-.58-5.36-1.38-7.93-.92-2.71-2.46-5.28-2.81-8.16-.12-.97-.35-2.28.63-2.81s3.18.46,4.02,1.06Z"/><path class="cls-26_conference-3-100 targetColor" d="M239.71,262.36c-3.3.3-6.61.42-9.92.37-3.34-.1-8.82-.45-11.81,3.19-3.7,4.51-.51,12.42,2.07,18.39.97,2.21,1.44,9.41.94,14.67,0,0,10.4,3.64,19.55,1.74l3.14-11.78s8.75-12.96-3.97-26.58Z" style="fill: rgb(255, 223, 211);"/><path class="cls-13_conference-3-100" d="M239.71,262.36c-3.3.3-6.61.42-9.92.37-3.34-.1-8.82-.45-11.81,3.19-3.7,4.51-.51,12.42,2.07,18.39.97,2.21,1.44,9.41.94,14.67,0,0,10.4,3.64,19.55,1.74l3.14-11.78s8.75-12.96-3.97-26.58Z"/><path class="cls-22_conference-3-100" d="M235.57,238.69s4.41.26,5.73,6.65c1.31,6.39-5.06,6.29-5.06,6.29l-3.87-11.09,3.21-1.85Z"/><path class="cls-24_conference-3-100" d="M232.64,259.77c3.99.33,6.42-3.4,6.9-8.28.05-.53.07-1.08.07-1.63,0-1.59-.18-3.17-.54-4.72-1.75-7.48-12.42-4.48-12.42-4.48-8.32,3.75-.95,18.54,5.99,19.11Z"/><path class="cls-18_conference-3-100" d="M228.1,254.26c.69,2.21,3.59,6.1,6.9,5.19-.8,1.44-.69,3.21.27,4.55,0,0-1.08,2.76-8.36-1.32,0,0,1.97-.16,1.43-4.2-.15-1.39-.64-2.72-1.43-3.88.25.28.69.31.97.05.12-.1.19-.24.22-.4Z"/><path class="cls-22_conference-3-100" d="M235.5,240.51c-1.03,3.61-2.43,8.75-5.95,10.73-.48.32-1.05.5-1.63.51-.54-.11-.48-.54-.9-.92-.28-.28-.71-.36-1.07-.19-.3.23-.46.59-.43.96,0,.9.47,1.74,1.24,2.2.35.16.68.35.99.57.35.35.56.81.59,1.3.12,1.35-.55,2.65-1.72,3.33-.07.05-.16.08-.24.08-.1-.02-.19-.07-.26-.15l-1.57-1.44c-.75-.64-1.43-1.36-2.02-2.15-.73-1.07-1.12-2.33-1.12-3.63,0-.59.23-1.18.22-1.74-.1-.74-.29-1.47-.58-2.16-.35-.89-.53-1.84-.54-2.79.13-1.88,1.68-3.37,3.37-4.19,2.66-1.32,5.73-1.47,8.71-1.5.59-.04,1.19.04,1.75.23.5.21.72.77,1.19.95Z"/><path class="cls-24_conference-3-100" d="M228.43,285.99l-3.05,6.7s-6.58-8.17-9.05-17c-2.19-7.81,1.68-9.77,1.68-9.77,2.96-1.08,4.97,3.13,7.88,11.66,1.6,4.69,2.54,8.42,2.54,8.42Z"/><path class="cls-24_conference-3-100" d="M225.38,292.69s-.12-5.44,2.54-6.53,21.27-4,21.27-4l1.75,2.01s-18.28,10.53-25.56,8.51Z"/><path class="cls-26_conference-3-100 targetColor" d="M214.88,273.78c-.42,3.71.39,7.46,2.3,10.67,1.54,2.58,4.02,4.34,5.85,6.7.88,1.14,1.75,2.45,3.12,2.89.9.29,1.65-.05,2.55-.17,1.1-.15,2.19-.33,3.27-.58,2.1-.49,4.15-1.19,6.15-1.99,1.74-.7,3.44-1.48,5.12-2.29,1.37-.66,3.18-1.18,3.99-2.55.14-.17.24-.38.28-.6,0-.24-.06-.48-.19-.69l-1.55-3.21c-.17-.56-.76-.87-1.32-.71-.1.03-.19.07-.27.13-3.89,1.02-7.87,1.7-11.88,2.03-.44.07-.89.03-1.31-.14-.28-.18-.51-.41-.69-.69-1.11-1.52-1.62-3.38-2.15-5.19-1.06-3.63-2.23-7.37-4.26-10.6-.8-1.28-2.1-2.76-3.76-2.07-1.49.61-3.63,1.48-4.39,2.82-.94,1.62-.61,4.36-.86,6.22Z" style="fill: rgb(255, 223, 211);"/><path class="cls-11_conference-3-100" d="M214.88,273.78c-.42,3.71.39,7.46,2.3,10.67,1.54,2.58,4.02,4.34,5.85,6.7.88,1.14,1.75,2.45,3.12,2.89.9.29,1.65-.05,2.55-.17,1.1-.15,2.19-.33,3.27-.58,2.1-.49,4.15-1.19,6.15-1.99,1.74-.7,3.44-1.48,5.12-2.29,1.37-.66,3.18-1.18,3.99-2.55.14-.17.24-.38.28-.6,0-.24-.06-.48-.19-.69l-1.55-3.21c-.17-.56-.76-.87-1.32-.71-.1.03-.19.07-.27.13-3.89,1.02-7.87,1.7-11.88,2.03-.44.07-.89.03-1.31-.14-.28-.18-.51-.41-.69-.69-1.11-1.52-1.62-3.38-2.15-5.19-1.06-3.63-2.23-7.37-4.26-10.6-.8-1.28-2.1-2.76-3.76-2.07-1.49.61-3.63,1.48-4.39,2.82-.94,1.62-.61,4.36-.86,6.22Z"/><path class="cls-19_conference-3-100" d="M255.58,307.08l-.23-.23c.9,1.01,1.51,1.75,1.7,1.97-.49-.59-.99-1.15-1.47-1.73Z"/><path class="cls-16_conference-3-100" d="M219.9,308.15c.54,3.18,2.7,5.9,5.34,7.75,2.64,1.86,5.73,2.93,8.81,3.87,1.82.56,2.95,2.89,4.6,3.86.6.29,1.12.73,1.51,1.26.6.97.3,2.23,0,3.32-1.38,4.85-2.78,9.69-4.19,14.54-.69,2.41-1.38,4.97-.74,7.38.64,2.41,3.21,4.51,5.59,3.71l13.93-22.5s2.29-9.04-2.52-16.74c-2.07-3.32-18.32-17-18.32-17-4.14-.61-8.39-.88-12.42-1.12-.46,3.92-2.25,7.77-1.59,11.66Z"/><path class="cls-16_conference-3-100" d="M233.88,297.61s16.56,13.5,18.32,17c4.87,9.77,2.52,16.74,2.52,16.74l12.19,19.59c2.82.06,6.6-.69,6.75-3.52-.02-.79-.21-1.57-.55-2.29-3.06-7.62-6.12-15.24-9.17-22.86-1.82-4.54-3.7-9.16-6.6-13.05l-.26-.34h0l-.03-.05c-.19-.22-.79-.95-1.7-1.97h0c-2.64-2.95-7.79-8.22-12.55-10.35,0,0-5.52,1.52-8.85,1.12l-.06-.03Z"/><path class="cls-24_conference-3-100" d="M242.38,358.13c1.08,1,2.53,2.01,2.48,3.45,0,.15-.04.29-.12.41-.15.15-.35.23-.57.23-3.35.37-6.46-1.67-9.06-3.81-.71-.47-1.24-1.18-1.49-1.99-.03-.86.21-1.72.69-2.44.61-1.25,1.12-2.55,1.5-3.89-.12.4,1.57,1.81,1.85,2.07.6.52,1.48.9,1.95,1.55.35.66.65,1.34.92,2.03.48.88,1.1,1.69,1.83,2.38Z"/><path class="cls-24_conference-3-100" d="M276.91,351.88c1.17.41,2.54.64,3.28,1.63.15.18.23.4.25.63,0,.61-.69.95-1.32,1.08-2.41.49-4.9.14-7.34-.21-.32-.02-.63-.12-.9-.28-.32-.29-.55-.67-.63-1.09l-.97-2.97c-.03-.09-.03-.19,0-.28.04-.09.11-.16.19-.21.65-.46,1.34-.86,2.07-1.19.99-.44,1.06-.42,1.72.36.98,1.14,2.23,2.01,3.65,2.52Z"/><path class="cls-24_conference-3-100" d="M251.18,281.77c1.92-.3,4.08-.55,5.64.62.74.63,1.34,1.41,1.78,2.28.6.52.67,1.44.14,2.04-.3.34-.74.53-1.19.49-1.77.43-3.68.83-5.38.17-1.26-.49-2.28-1.53-3.59-1.84-.22-.03-.44-.11-.63-.22-.18-.15-.31-.35-.36-.58-.79-2.62,1.85-2.68,3.59-2.96Z"/><path class="cls-26_conference-3-100 targetColor" d="M271.81,357.25c.06.14.17.26.3.34.19.07.41.07.6,0,1.09-.15,2.2-.18,3.3-.11,2.23-.04,4.46-.24,6.66-.61.97-.14,2.03-.34,2.6-1.14.07-.09.11-.2.13-.32-.01-.17-.08-.33-.2-.46-.97-1.16-2.24-2.03-3.68-2.51-.53-.22-1.1-.35-1.68-.37-.59,0-1.15.25-1.53.69-.39.51-.45,1.23-.9,1.69-.52.41-1.18.58-1.83.49-.76-.03-1.52-.12-2.27-.26-.57-.11-1.38-.5-1.97-.35-1.27.33.11,2.26.48,2.92Z" style="fill: rgb(255, 223, 211);"/><path class="cls-26_conference-3-100 targetColor" d="M232.82,358.19c-.03.17,0,.35.07.51.14.19.34.32.57.39,1.13.55,2.2,1.22,3.19,1.99,2.14,1.38,4.39,2.6,6.71,3.66,1,.48,2.15.97,3.19.57.12-.04.24-.12.32-.21.1-.17.14-.37.1-.56-.18-1.72-.83-3.36-1.89-4.73-.37-.54-.84-1.01-1.38-1.38-.55-.38-1.24-.5-1.88-.33-.69.23-1.21.88-1.93,1.03-.76.07-1.51-.18-2.07-.69-.71-.51-1.37-1.08-1.99-1.69-.47-.46-1.01-1.38-1.64-1.58-1.37-.59-1.32,2.17-1.37,3.02Z" style="fill: rgb(255, 223, 211);"/><path class="cls-22_conference-3-100" d="M239.62,246.59c-.01.11-.04.22-.09.32-.19.27-.54.36-.83.23-.29-.14-.54-.34-.73-.59.04.26-.11.52-.36.61-.25.09-.51.1-.77.04-.58-.1-1.14-.3-1.66-.59-.05.72-.67,1.26-1.39,1.21-.36-.02-.69-.19-.92-.47l-.35.69c-.32-.17-.69,0-1.06-.04-.75-.14-1.28-.8-1.26-1.57.04-.73.23-1.45.55-2.11.45-1.15.79-2.35,1.01-3.57.04-.4.16-.78.37-1.12.26-.32.61-.54,1-.64,1.85-.54,3.98.69,5.15,2.07,1.14,1.61,1.61,3.58,1.34,5.53Z"/></g><g id="character_1_conference-3-100"><path class="cls-25_conference-3-100" d="M424.96,356.5c.05,1.45-.22,2.89-.79,4.23-.71,1.24-1.78,2.24-3.08,2.86-2.76,1.44-5.98,1.75-8.97.88-.41-.08-.78-.3-1.04-.63-.15-.27-.21-.58-.19-.89.07-1.65,1.18-3.06,2.36-4.22s2.5-2.23,3.24-3.71c1.38-2.76.35-10.19,5.59-9,4.37.97,2.99,7.39,2.88,10.49Z"/><path class="cls-26_conference-3-100 targetColor" d="M425.69,361.51s.75,1.83-.17,2.9-10.35,6.9-16.66,2.21c-6.31-4.68,8.6-5.32,8.6-5.32l8.24.21Z" style="fill: rgb(255, 223, 211);"/><path class="cls-23_conference-3-100" d="M425.32,357.25c-.6-.28-1.31-.09-1.7.44-1.26,1.43-3.16,2.12-5.04,1.81-2.07-.5-2.89-2.88-3.92-2.89s-6.5,4.66-6.81,6.66,2.48,3.45,5.58,3.67,10.1-1.95,11.43-3.57,1.17-5.08.46-6.11Z"/><path class="cls-25_conference-3-100" d="M442.93,359.4c.05,1.45-.22,2.89-.79,4.23-.71,1.24-1.79,2.24-3.08,2.86-2.76,1.44-5.98,1.75-8.97.88-.41-.08-.78-.3-1.04-.63-.15-.27-.21-.58-.18-.89.06-1.65,1.17-3.06,2.35-4.22s2.51-2.23,3.24-3.72c1.38-2.76.35-10.18,5.59-8.97,4.37.93,2.99,7.33,2.88,10.46Z"/><path class="cls-26_conference-3-100 targetColor" d="M443.65,364.38s.75,1.83-.17,2.9c-.92,1.07-10.35,6.9-16.66,2.21s8.6-5.32,8.6-5.32l8.24.21Z" style="fill: rgb(255, 223, 211);"/><path class="cls-23_conference-3-100" d="M443.29,360.09c-.6-.28-1.31-.1-1.7.43-1.26,1.43-3.16,2.12-5.04,1.81-2.07-.49-2.89-2.87-3.92-2.88s-6.5,4.65-6.81,6.66c-.3,2.01,2.48,3.45,5.58,3.67s10.1-1.95,11.43-3.58c1.33-1.63,1.17-5.06.46-6.1Z"/><path class="cls-16_conference-3-100" d="M446.66,282s.98,53.81-3.01,71.79l-10.1,1.25-7-73.71,20.11.67Z"/><path class="cls-16_conference-3-100" d="M415.41,276.12s-4.76,29.03,1.01,75.67l10.12,1.25,7-73.71-18.14-3.21Z"/><path class="cls-26_conference-3-100 targetColor" d="M403.57,252.97c.11,1.95.74,3.64,2.43,4.21.14.05.29.09.43.12,3.1.62,7.18-1.75,10.02-3.81,1.18-.86,2.31-1.78,3.39-2.76v-20.8l-15.11,15.47s-1.38,4.16-1.17,7.57Z" style="fill: rgb(255, 223, 211);"/><path class="cls-26_conference-3-100 targetColor" d="M416.35,253.41c0,.97-.12,1.97-.12,2.94,0,5.37,1.24,10.91-.36,16.18-.36,1.18-.86,2.44-.45,3.59.46.97,1.26,1.74,2.25,2.17,4.73,2.59,10.21,3.38,15.55,4.14,4.02.56,9.72,1.75,13.44-.41,1.58-.92,2.12-2.64,2.62-4.35,1.61-5.45,2.07-11.31,2.5-16.95.06-.74.11-1.49.15-2.23.31-5.14.42-10.29.32-15.44-.08-3.73-.37-7.77-2.81-10.59-3.25-3.75-9.52-6.21-14.28-7.11-1.54-.32-3.13-.41-4.7-.26-2.22.36-4.37,1.09-6.35,2.16-2.37,1.17-4.47,2.16-5.64,4.5-1.28,2.7-2.16,5.56-2.64,8.51-.44,2.77-.49,5.58-.16,8.36.14,1.38.5,2.72.63,4.07,0,.24.03.49.04.73Z" style="fill: rgb(255, 223, 211);"/><path class="cls-1_conference-3-100" d="M438.26,283.84c1.56.46,5.15-.97,6.35-1.18.69-.12,1.38-.48,2.07-.66,3.56-.88,3.98-10.88,4.33-13.57.92-7.11,2.34-14.49,2.42-21.6,0-2.76-.04-5.55-.95-8.15-.9-2.59-2.76-4.99-5.33-5.93-4.55-1.64-5.9,12.73-6.52,15.71l-3.41,16.25c-.48,2-.79,4.03-.93,6.08-.12,2.85.79,4.83,1.52,7.4.41,1.41-.69,4.14-.17,5.17.14.23.36.4.62.46Z"/><path class="cls-25_conference-3-100" d="M427.34,220.88c.57.62,1.35,1.01,2.19,1.1.7.07,1.41.09,2.11.03h.39c.1-.02.2,0,.29.05.08.08.13.2.12.32.16,1.4.18,2.82.08,4.23h0c0,.26-.04.5-.07.76-.05.27-.03.54.07.8.2.29.51.49.86.56.62.21,1.26.32,1.91.32,1.39-.14,2.73-.61,3.89-1.38-.1-2.41.03-4.82.38-7.21.45-3.08,1.26-6.17.92-9.26-.07-1.22-.51-2.4-1.27-3.36-1.11-1.25-2.91-1.66-4.59-1.65-2.22-.04-4.41.56-6.3,1.72-.69.48-.78,1.08-.94,1.86-.24,1.21-.43,2.45-.57,3.68-.15,1.38-.24,2.81-.26,4.23-.03,1.12.03,2.38.77,3.2Z"/><path class="cls-16_conference-3-100" d="M429.77,208.65c1.58.26,3.31,0,4.83.6,2.07.85,2.97,3.55,2.28,5.7.6.21.69-.87,1.18-1.31.49-.44,1.51.15,1.59.9-.05.76-.29,1.5-.69,2.15-.57,1.33-.67,2.82-.28,4.21.1.32.34.69.69.63s.56-.64.76-.89c.32-.38.67-.74,1.06-1.07.73-.64,1.54-1.21,2.29-1.83,1.33-1.11,2.57-2.63,2.49-4.37-.05-.71-.28-1.39-.69-1.97-.34-.51-.78-.94-1.3-1.26-.21-.13-.46-.28-.5-.52,0-.14,0-.28.06-.41.46-1.76-.52-3.65-1.97-4.75-1.52-1.02-3.25-1.66-5.06-1.88-1.16-.21-2.33-.37-3.5-.51-.97-.06-1.93-.29-2.81-.69.23-.64.55-1.24.93-1.8-.83.25-1.62.61-2.35,1.08.04-.4.15-.8.31-1.17-1.27.43-2.62.92-3.45,1.97-1.01,1.39-1.06,3.25-.12,4.69.9,1.43,2.33,2,3.9,2.38l.39.11Z"/><path class="cls-17_conference-3-100" d="M431.62,222.01h.39c.1-.02.2,0,.29.05.08.08.13.2.12.32.16,1.4.18,2.82.08,4.23h0s4.04-1.03,3.9-6c-1.54.63-3.13,1.11-4.77,1.41h-.03Z"/><path class="cls-26_conference-3-100 targetColor" d="M390.97,247.6c1.98,2.81,4.44,5.26,7.26,7.23,2.03,1.38,4.38,2.22,6.82,2.45.32.03.64,0,.95-.1.52-.16.98-.48,1.31-.91,1.02-1.22,1.63-2.73,1.75-4.31.17-4.14-4.33-6.55-4.33-6.55,0,0-10.22-3.26-11.44-2.76-.69.29-1.3,1.72-1.74,2.97-.36,1.08-.59,1.99-.59,1.99Z" style="fill: rgb(255, 223, 211);"/><path class="cls-1_conference-3-100" d="M390.97,247.6c1.98,2.81,4.44,5.26,7.26,7.23,2.03,1.38,4.38,2.22,6.82,2.45.32.03.64,0,.95-.1.14.05.29.09.43.12,3.1.62,7.18-1.75,10.02-3.81v-.07l-.97-6.21c-1.86,1.92-4.02,3.52-6.4,4.75-1.69.91-3.62,1.26-5.52,1.01-.51-.08-1.01-.22-1.48-.44-3.8-1.83-7.34-4.15-10.53-6.9-.36,1.06-.59,1.97-.59,1.97Z"/><path class="cls-26_conference-3-100 targetColor" d="M458.64,254.37c1.38,3.65,2.53,7.52,1.99,11.37-.69,4.67-3.77,8.57-6.76,12.22-2.35.35-5.44.3-6.26-1.92-.21-.72-.27-1.47-.16-2.21l.33-4.83c.15-2.15.29-4.36-.33-6.42-.69-2.35-2.33-4.3-3.62-6.39-2.1-3.41-3.35-7.27-3.64-11.26-.27-3.74,2.56-15.87,8.08-12.21,2.29,1.5,4.32,7.72,5.52,10.22,1.81,3.73,3.42,7.54,4.85,11.43Z" style="fill: rgb(255, 223, 211);"/><path class="cls-25_conference-3-100" d="M446.19,281.24c-.13.18-.2.4-.19.63,0,.22.27.43.47.32.56,1.73-.61,3.55-.61,5.37,0,.16.01.33.06.48.08.2.23.37.41.49.62.39,1.4.44,2.07.13.65-.31,1.24-.74,1.72-1.28,1.05-.96,1.85-2.16,2.32-3.5.17-.62.29-1.26.34-1.9l.56-4.75c-3.58-1.17-5.5,1.19-7.15,4.02Z"/><path class="cls-25_conference-3-100" d="M391.6,238.69c-.1-.32-.28-.61-.52-.84-.26-.22-.66-.2-.89.06-.09.18-.14.36-.17.56-.19.43-.62.71-1.09.69-.46-.02-.91-.13-1.33-.32-1.21-.46-2.45-.84-3.71-1.15-.29-.09-.6-.09-.9,0-.31.16-.54.44-.63.78-.53,1.56-.24,3.27.77,4.57,1.02,1.26,2.41,2.18,3.97,2.61,1.55.42,3.16.65,4.77.69.41.07.83,0,1.2-.17,1.98-1.15-.96-6.19-1.46-7.48Z"/></g><g id="table_conference-3-100"><path class="cls-23_conference-3-100" d="M26.05,294.42v65.17c0,1.25.83,2.27,1.85,2.27h28.39c1.02,0,1.85-1.02,1.85-2.27v-65.17c-.02-.24.15-.45.39-.48h220.23c.24.03.41.24.39.48v56.93c.32.17.64.33.97.46l.49.16v-57.55c0-.16-.01-.32-.04-.48h28.82c.24.03.41.24.39.48v65.17c.02.24-.15.45-.39.48h-28.39c-.24-.03-.41-.24-.39-.48v-1.67c-.48.14-.98.16-1.46.08v1.59c0,1.25.83,2.27,1.85,2.27h28.39c1.02,0,1.85-1.02,1.85-2.27v-65.17c0-1.25-.83-2.26-1.85-2.26H27.94c-1.06,0-1.89,1.02-1.89,2.26ZM27.51,294.42c-.02-.24.15-.45.39-.48h28.81c-.03.16-.04.32-.04.48v65.17c.02.24-.15.45-.39.48h-28.39c-.24-.03-.41-.24-.39-.48v-65.17Z"/><path class="cls-12_conference-3-100" d="M26.05,294.42v65.17c0,1.25.83,2.27,1.85,2.27h28.39c1.02,0,1.85-1.02,1.85-2.27v-65.17c-.02-.24.15-.45.39-.48h220.23c.24.03.41.24.39.48v56.93c.32.17.64.33.97.46l.49.16v-57.55c0-.16-.01-.32-.04-.48h28.82c.24.03.41.24.39.48v65.17c.02.24-.15.45-.39.48h-28.39c-.24-.03-.41-.24-.39-.48v-1.67c-.48.14-.98.16-1.46.08v1.59c0,1.25.83,2.27,1.85,2.27h28.39c1.02,0,1.85-1.02,1.85-2.27v-65.17c0-1.25-.83-2.26-1.85-2.26H27.94c-1.06,0-1.89,1.02-1.89,2.26ZM27.51,294.42c-.02-.24.15-.45.39-.48h28.81c-.03.16-.04.32-.04.48v65.17c.02.24-.15.45-.39.48h-28.39c-.24-.03-.41-.24-.39-.48v-65.17Z"/><path class="cls-23_conference-3-100" d="M27.9,361.86h28.39c1.02,0,1.85-1.02,1.85-2.27v-65.17c-.02-.24.15-.45.39-.48h250.86c.24.03.41.24.39.48v65.17c.02.24-.15.45-.39.48-.5.11-.81.6-.7,1.09.08.35.35.63.7.7,1.02,0,1.85-1.02,1.85-2.27v-65.17c0-1.25-.83-2.27-1.85-2.27H58.52c-1.02,0-1.85,1.02-1.85,2.27v65.17c.02.24-.15.45-.39.48h-28.39c-.24-.03-.41-.24-.39-.48v-65.17c-.02-.24.15-.45.39-.48.5-.11.81-.6.7-1.09-.08-.35-.35-.63-.7-.7-1.02,0-1.85,1.02-1.85,2.27v65.17c0,1.25.83,2.27,1.85,2.27Z"/><path class="cls-7_conference-3-100" d="M27.9,361.86h28.39c1.02,0,1.85-1.02,1.85-2.27v-65.17c-.02-.24.15-.45.39-.48h250.86c.24.03.41.24.39.48v65.17c.02.24-.15.45-.39.48-.5.11-.81.6-.7,1.09.08.35.35.63.7.7,1.02,0,1.85-1.02,1.85-2.27v-65.17c0-1.25-.83-2.27-1.85-2.27H58.52c-1.02,0-1.85,1.02-1.85,2.27v65.17c.02.24-.15.45-.39.48h-28.39c-.24-.03-.41-.24-.39-.48v-65.17c-.02-.24.15-.45.39-.48.5-.11.81-.6.7-1.09-.08-.35-.35-.63-.7-.7-1.02,0-1.85,1.02-1.85,2.27v65.17c0,1.25.83,2.27,1.85,2.27Z"/><path class="cls-23_conference-3-100" d="M311.12,292.13H55.6v-3.4h257.58v1.35c0,1.13-.92,2.05-2.06,2.06Z"/><path class="cls-23_conference-3-100" d="M55.59,292.13h-29.43c-1.14,0-2.07-.93-2.07-2.07v-2.19h31.5v4.24h0Z"/><path class="cls-26_conference-3-100 targetColor" d="M51.49,286.9h263.25c.32.04.55.32.52.64v1.89c.03.32-.2.6-.52.64H51.49v-3.17Z" style="fill: rgb(255, 223, 211);"/><path class="cls-26_conference-3-100 targetColor" d="M260.5,274.98h38.87c1.23-.02,2.25-.95,2.39-2.17l2.61-29.47c.11-1.08-.66-2.04-1.74-2.16-.08,0-.17-.01-.25-.01h-38.87c-1.23.02-2.25.95-2.38,2.17l-2.61,29.47c-.11,1.08.67,2.05,1.75,2.16.08,0,.16.01.25.01Z" style="fill: rgb(255, 223, 211);"/><path class="cls-26_conference-3-100 targetColor" d="M262,274.98h38.87c1.23-.02,2.25-.95,2.38-2.17l2.61-29.47c.11-1.08-.66-2.04-1.74-2.16-.08,0-.17-.01-.25-.01h-38.87c-1.23.02-2.25.95-2.39,2.17l-2.61,29.47c-.12,1.08.66,2.04,1.73,2.16.09,0,.17.01.26.01Z" style="fill: rgb(255, 223, 211);"/><path class="cls-4_conference-3-100" d="M262,274.98h38.87c1.23-.02,2.25-.95,2.38-2.17l2.61-29.47c.11-1.08-.66-2.04-1.74-2.16-.08,0-.17-.01-.25-.01h-38.87c-1.23.02-2.25.95-2.39,2.17l-2.61,29.47c-.12,1.08.66,2.04,1.73,2.16.09,0,.17.01.26.01Z"/><path class="cls-26_conference-3-100 targetColor" d="M291.6,286.74h-11.29v-18.51c0-3.12,2.53-5.64,5.64-5.64h0c3.12,0,5.64,2.53,5.64,5.64v18.51h0Z" style="fill: rgb(255, 223, 211);"/><path class="cls-26_conference-3-100 targetColor" d="M294.22,286.74h-11.27v-18.51c0-3.12,2.53-5.64,5.64-5.64h0c3.12,0,5.64,2.53,5.64,5.64v18.51h-.01Z" style="fill: rgb(255, 223, 211);"/><path class="cls-5_conference-3-100" d="M294.22,286.74h-11.27v-18.51c0-3.12,2.53-5.64,5.64-5.64h0c3.12,0,5.64,2.53,5.64,5.64v18.51h-.01Z"/><path class="cls-26_conference-3-100 targetColor" d="M22.63,286.9h34.15c.32.04.55.32.52.64v1.89c.03.32-.2.6-.52.64H22.63c-.37-.04-.64-.37-.61-.74v-1.66c-.04-.38.23-.72.6-.77,0,0,0,0,0,0Z" style="fill: rgb(255, 223, 211);"/><path class="cls-6_conference-3-100" d="M22.63,286.9h34.15c.32.04.55.32.52.64v1.89c.03.32-.2.6-.52.64H22.63c-.37-.04-.64-.37-.61-.74v-1.66c-.04-.38.23-.72.6-.77,0,0,0,0,0,0Z"/></g></svg>