<?xml version="1.0" encoding="UTF-8" standalone="no"?><!DOCTYPE svg PUBLIC "-//W3C//DTD SVG 1.1//EN" "http://www.w3.org/Graphics/SVG/1.1/DTD/svg11.dtd"><svg width="100%" height="100%" viewBox="0 0 461 260" version="1.1" xmlns="http://www.w3.org/2000/svg" xmlns:xlink="http://www.w3.org/1999/xlink" xml:space="preserve" xmlns:serif="http://www.serif.com/" style="fill-rule:evenodd;clip-rule:evenodd;stroke-linejoin:round;stroke-miterlimit:2;"><path d="M430.05,6.591c17.492,9.314 25.033,29.38 16.832,44.782c-8.202,15.402 -29.061,20.344 -46.552,11.03c-17.491,-9.314 -25.033,-29.38 -16.831,-44.782c8.201,-15.402 29.06,-20.344 46.551,-11.03Z" style="fill:#efe6e7;"/><path d="M477.215,165.941c17.491,9.314 25.033,29.381 16.831,44.783c-8.202,15.401 -29.061,20.344 -46.552,11.03c-17.491,-9.315 -25.033,-29.381 -16.831,-44.783c8.201,-15.401 29.06,-20.344 46.552,-11.03Z" style="fill:#efe6e7;"/><path d="M408.427,312.563c-14.623,37.839 -53.807,57.577 -87.448,44.051c-33.641,-13.527 -49.081,-55.229 -34.458,-93.067c14.623,-37.839 53.807,-57.577 87.448,-44.051c33.641,13.527 49.081,55.229 34.458,93.067Z" style="fill:#efe6e7;"/><path d="M279.676,186.404c1.365,-1.366 3.424,-1.209 4.79,0.157l18.194,18.913c1.623,1.623 1.681,3.594 -0.224,5.499l-5.038,4.629c-1.35,1.35 -3.641,1.43 -5.536,-0.112l-17.657,-18.531c-1.588,-1.385 -1.763,-4 -0.585,-5.178l6.056,-5.377Z" style="fill:#efe6e7;"/><path d="M279.676,186.404c1.365,-1.366 3.424,-1.209 4.79,0.157l18.194,18.913c1.623,1.623 1.681,3.594 -0.224,5.499l-5.038,4.629c-1.35,1.35 -3.641,1.43 -5.536,-0.112l-17.657,-18.531c-1.588,-1.385 -1.763,-4 -0.585,-5.178l6.056,-5.377Z" style="fill:none;"/><path d="M415.948,213.512c1.365,-1.366 3.424,-1.209 4.79,0.157l18.195,18.913c1.622,1.623 1.68,3.593 -0.225,5.499l-5.038,4.629c-1.35,1.35 -3.64,1.43 -5.536,-0.112l-17.657,-18.531c-1.588,-1.385 -1.763,-4 -0.585,-5.178l6.056,-5.377Z" style="fill:#efe6e7;"/><path d="M415.948,213.512c1.365,-1.366 3.424,-1.209 4.79,0.157l18.195,18.913c1.622,1.623 1.68,3.593 -0.225,5.499l-5.038,4.629c-1.35,1.35 -3.64,1.43 -5.536,-0.112l-17.657,-18.531c-1.588,-1.385 -1.763,-4 -0.585,-5.178l6.056,-5.377Z" style="fill:none;"/><path d="M358.671,34.624c1.499,1.217 1.806,2.974 0.897,4.094l-12.751,14.909c-1.08,1.332 -2.806,1.313 -4.899,-0.385l-5.172,-4.475c-1.483,-1.203 -2.048,-3.166 -1.097,-4.734l12.529,-14.462c0.878,-1.31 3.147,-1.368 4.441,-0.318l6.052,5.371Z" style="fill:#efe6e7;"/><path d="M358.671,34.624c1.499,1.217 1.806,2.974 0.897,4.094l-12.751,14.909c-1.08,1.332 -2.806,1.313 -4.899,-0.385l-5.172,-4.475c-1.483,-1.203 -2.048,-3.166 -1.097,-4.734l12.529,-14.462c0.878,-1.31 3.147,-1.368 4.441,-0.318l6.052,5.371Z" style="fill:none;"/><path d="M333.343,34.624c1.499,1.217 1.806,2.974 0.897,4.094l-12.751,14.909c-1.08,1.332 -2.806,1.313 -4.899,-0.385l-5.171,-4.475c-1.483,-1.203 -2.049,-3.166 -1.098,-4.734l12.529,-14.462c0.878,-1.31 3.147,-1.368 4.441,-0.318l6.052,5.371Z" style="fill:#efe6e7;"/><path d="M333.343,34.624c1.499,1.217 1.806,2.974 0.897,4.094l-12.751,14.909c-1.08,1.332 -2.806,1.313 -4.899,-0.385l-5.171,-4.475c-1.483,-1.203 -2.049,-3.166 -1.098,-4.734l12.529,-14.462c0.878,-1.31 3.147,-1.368 4.441,-0.318l6.052,5.371Z" style="fill:none;"/></svg>