<?xml version="1.0" encoding="UTF-8" standalone="no"?><!DOCTYPE svg PUBLIC "-//W3C//DTD SVG 1.1//EN" "http://www.w3.org/Graphics/SVG/1.1/DTD/svg11.dtd"><svg width="100%" height="100%" viewBox="0 0 1920 1080" version="1.1" xmlns="http://www.w3.org/2000/svg" xmlns:xlink="http://www.w3.org/1999/xlink" xml:space="preserve" xmlns:serif="http://www.serif.com/" style="fill-rule:evenodd;clip-rule:evenodd;stroke-linejoin:round;stroke-miterlimit:2;"><path d="M1446.88,720.809c103.077,59.512 121.191,221.401 40.425,361.292c-80.766,139.891 -230.023,205.149 -333.101,145.637c-103.077,-59.512 -121.191,-221.402 -40.425,-361.292c80.766,-139.891 230.023,-205.149 333.101,-145.637Z" style="fill:#ebebeb;"/><path d="M1654.02,197.954c54.875,42.059 71.11,113.148 36.234,158.651c-34.876,45.502 -107.742,48.297 -162.617,6.237c-54.874,-42.059 -71.11,-113.148 -36.233,-158.651c34.876,-45.502 107.742,-48.297 162.616,-6.237Z" style="fill:#ebebeb;"/><path d="M-128.845,217.284c85.768,-82.525 235.867,-65.897 334.977,37.109c99.111,103.006 109.943,253.634 24.174,336.159c-85.769,82.525 -235.867,65.897 -334.977,-37.11c-99.111,-103.006 -109.943,-253.633 -24.174,-336.158Z" style="fill:#ebebeb;"/><path d="M1064.44,690.534l-27.134,27.134c-7.487,7.488 -19.646,7.488 -27.134,-0l-86.929,-86.93c-7.488,-7.488 -7.488,-19.646 -0,-27.134l27.134,-27.134c7.488,-7.488 19.646,-7.488 27.134,0l86.929,86.93c7.488,7.488 7.488,19.646 0,27.134Z" style="fill:#ebebeb;"/><path d="M1773.46,713.81l-27.134,27.134c-7.488,7.488 -19.647,7.488 -27.134,-0l-86.93,-86.93c-7.488,-7.488 -7.488,-19.646 -0,-27.134l27.134,-27.134c7.488,-7.488 19.646,-7.488 27.134,-0l86.93,86.93c7.487,7.487 7.487,19.646 -0,27.134Z" style="fill:#ebebeb;"/><path d="M1938.18,728.133l-27.134,27.134c-7.488,7.488 -19.646,7.488 -27.134,0l-86.93,-86.929c-7.488,-7.488 -7.488,-19.647 0,-27.134l27.134,-27.134c7.488,-7.488 19.646,-7.488 27.134,-0l86.93,86.929c7.488,7.488 7.488,19.646 0,27.134Z" style="fill:#ebebeb;"/><path d="M518.351,49.553l-27.134,27.134c-7.488,7.488 -19.646,7.488 -27.134,-0l-86.93,-86.93c-7.487,-7.488 -7.487,-19.646 0,-27.134l27.134,-27.134c7.488,-7.488 19.647,-7.488 27.134,-0l86.93,86.93c7.488,7.488 7.488,19.646 0,27.134Z" style="fill:#ebebeb;"/><path d="M817.299,809.544c-53.107,-30.662 -325.407,132.483 -326.76,195.773c-1.352,63.29 264.184,216.598 318.644,183.969c54.46,-32.629 61.223,-349.081 8.116,-379.742Z" style="fill:#ebebeb;"/><path d="M1187.92,-191.318c-53.107,-30.661 -325.407,132.483 -326.759,195.773c-1.353,63.291 264.183,216.598 318.643,183.969c54.46,-32.629 61.223,-349.08 8.116,-379.742Z" style="fill:#ebebeb;"/></svg>